# xmcd
#
# Track frame offsets: 
#        150
#        26121
#        40830
#        54918
#        69550
#        98640
#        186916
#
# Disc length: 3151 seconds
#
# Revision: 2
# Processed by: cddbd v1.5.2PL0 Copyright (c) Steve Scherf et al.
# Submitted via: ExactAudioCopy v1.0b6
#
DISCID=570c4d07
DTITLE=Gallagher, Rory - Irish Tour '74 CD4
DYEAR=2014
DGENRE=Blues
TTITLE0=As The Crow Flies
TTITLE1=Pistol Slapper Blues
TTITLE2=Bankers Blues
TTITLE3=Unmilitary Two-Step
TTITLE4=Going To My Hometown
TTITLE5=In Your Town
TTITLE6=Bullfrog Blues
EXTD=
EXTT0=
EXTT1=
EXTT2=
EXTT3=
EXTT4=
EXTT5=
EXTT6=
PLAYORDER=
